<mxfile host="app.diagrams.net" agent="Mozilla/5.0 (Windows NT 10.0; Win64; x64) AppleWebKit/537.36 (KHTML, like Gecko) Chrome/135.0.0.0 Safari/537.36" version="26.2.8">
  <diagram name="Page-1" id="9I7m6aoadnP6DFpINg72">
    <mxGraphModel dx="788" dy="463" grid="1" gridSize="10" guides="1" tooltips="1" connect="1" arrows="1" fold="1" page="1" pageScale="1" pageWidth="850" pageHeight="1100" math="0" shadow="0">
      <root>
        <mxCell id="0" />
        <mxCell id="1" parent="0" />
        <mxCell id="tVjxG7Odu9xl5-6KQJ2N-3" value="Private subnet" style="points=[[0,0],[0.25,0],[0.5,0],[0.75,0],[1,0],[1,0.25],[1,0.5],[1,0.75],[1,1],[0.75,1],[0.5,1],[0.25,1],[0,1],[0,0.75],[0,0.5],[0,0.25]];outlineConnect=0;gradientColor=none;html=1;whiteSpace=wrap;fontSize=12;fontStyle=0;container=1;pointerEvents=0;collapsible=0;recursiveResize=0;shape=mxgraph.aws4.group;grIcon=mxgraph.aws4.group_security_group;grStroke=0;strokeColor=#00A4A6;fillColor=#E6F6F7;verticalAlign=top;align=left;spacingLeft=30;fontColor=#147EBA;dashed=0;shadow=0;" vertex="1" parent="1">
          <mxGeometry x="250" y="36" width="360" height="310" as="geometry" />
        </mxCell>
        <mxCell id="tVjxG7Odu9xl5-6KQJ2N-4" value="EC2" style="outlineConnect=0;dashed=0;verticalLabelPosition=bottom;verticalAlign=top;align=center;html=1;shape=mxgraph.aws3.ec2;fillColor=#F58534;gradientColor=none;" vertex="1" parent="tVjxG7Odu9xl5-6KQJ2N-3">
          <mxGeometry x="220" y="29" width="76.5" height="93" as="geometry" />
        </mxCell>
        <mxCell id="tVjxG7Odu9xl5-6KQJ2N-5" value="EC2" style="outlineConnect=0;dashed=0;verticalLabelPosition=bottom;verticalAlign=top;align=center;html=1;shape=mxgraph.aws3.ec2;fillColor=#F58534;gradientColor=none;" vertex="1" parent="tVjxG7Odu9xl5-6KQJ2N-3">
          <mxGeometry x="220" y="167" width="76.5" height="93" as="geometry" />
        </mxCell>
        <mxCell id="tVjxG7Odu9xl5-6KQJ2N-6" value="&lt;div&gt;&lt;br&gt;&lt;/div&gt;&lt;div&gt;&lt;br&gt;&lt;/div&gt;&lt;div&gt;&lt;br&gt;&lt;/div&gt;&lt;div&gt;&lt;br&gt;&lt;/div&gt;&lt;div&gt;&lt;br&gt;&lt;/div&gt;&lt;div&gt;&lt;br&gt;&lt;/div&gt;&lt;div&gt;VPC Link&lt;/div&gt;" style="points=[];aspect=fixed;html=1;align=center;shadow=0;dashed=0;fillColor=#FF6A00;strokeColor=none;shape=mxgraph.alibaba_cloud.privatelink;" vertex="1" parent="tVjxG7Odu9xl5-6KQJ2N-3">
          <mxGeometry x="-30" y="105.3" width="56.1" height="56.699999999999996" as="geometry" />
        </mxCell>
        <mxCell id="tVjxG7Odu9xl5-6KQJ2N-1" value="API&lt;div&gt;Gateway&lt;/div&gt;" style="sketch=0;points=[[0,0,0],[0.25,0,0],[0.5,0,0],[0.75,0,0],[1,0,0],[0,1,0],[0.25,1,0],[0.5,1,0],[0.75,1,0],[1,1,0],[0,0.25,0],[0,0.5,0],[0,0.75,0],[1,0.25,0],[1,0.5,0],[1,0.75,0]];outlineConnect=0;fontColor=#232F3E;fillColor=#E7157B;strokeColor=#ffffff;dashed=0;verticalLabelPosition=bottom;verticalAlign=top;align=center;html=1;fontSize=12;fontStyle=0;aspect=fixed;shape=mxgraph.aws4.resourceIcon;resIcon=mxgraph.aws4.api_gateway;" vertex="1" parent="1">
          <mxGeometry x="60" y="135.65" width="78" height="78" as="geometry" />
        </mxCell>
        <mxCell id="tVjxG7Odu9xl5-6KQJ2N-9" style="edgeStyle=orthogonalEdgeStyle;rounded=0;orthogonalLoop=1;jettySize=auto;html=1;" edge="1" parent="1" source="tVjxG7Odu9xl5-6KQJ2N-2" target="tVjxG7Odu9xl5-6KQJ2N-4">
          <mxGeometry relative="1" as="geometry" />
        </mxCell>
        <mxCell id="tVjxG7Odu9xl5-6KQJ2N-14" style="edgeStyle=orthogonalEdgeStyle;rounded=0;orthogonalLoop=1;jettySize=auto;html=1;" edge="1" parent="1" source="tVjxG7Odu9xl5-6KQJ2N-2" target="tVjxG7Odu9xl5-6KQJ2N-5">
          <mxGeometry relative="1" as="geometry" />
        </mxCell>
        <mxCell id="tVjxG7Odu9xl5-6KQJ2N-2" value="ALB" style="sketch=0;outlineConnect=0;fontColor=#232F3E;gradientColor=none;fillColor=#8C4FFF;strokeColor=none;dashed=0;verticalLabelPosition=bottom;verticalAlign=top;align=center;html=1;fontSize=12;fontStyle=0;aspect=fixed;pointerEvents=1;shape=mxgraph.aws4.application_load_balancer;" vertex="1" parent="1">
          <mxGeometry x="330" y="130" width="78" height="78" as="geometry" />
        </mxCell>
        <mxCell id="tVjxG7Odu9xl5-6KQJ2N-7" style="edgeStyle=orthogonalEdgeStyle;rounded=0;orthogonalLoop=1;jettySize=auto;html=1;entryX=0.071;entryY=0.594;entryDx=0;entryDy=0;entryPerimeter=0;" edge="1" parent="1" source="tVjxG7Odu9xl5-6KQJ2N-1" target="tVjxG7Odu9xl5-6KQJ2N-6">
          <mxGeometry relative="1" as="geometry" />
        </mxCell>
        <mxCell id="tVjxG7Odu9xl5-6KQJ2N-8" style="edgeStyle=orthogonalEdgeStyle;rounded=0;orthogonalLoop=1;jettySize=auto;html=1;" edge="1" parent="1" source="tVjxG7Odu9xl5-6KQJ2N-6" target="tVjxG7Odu9xl5-6KQJ2N-2">
          <mxGeometry relative="1" as="geometry" />
        </mxCell>
      </root>
    </mxGraphModel>
  </diagram>
</mxfile>
